<svg width="16" height="18" viewBox="0 0 16 18" version="1.1" xmlns="http://www.w3.org/2000/svg" fill-rule="nonzero"><g id="Bag-icon" transform="translate(0.000000, 0.127564)"><path d="M7.96144248,0 C5.97554137,0 4.36669479,1.63732595 4.36669479,3.65838052 L4.36669479,3.86363619 L2.52186554,3.86363619 C2.50803473,3.86286535 2.49417285,3.86286535 2.48034205,3.86363619 C2.31364652,3.88214254 2.17861968,4.00974407 2.14815414,4.17755663 L0.00672854251,16.5411924 C-0.0145002484,16.6544464 0.0150747349,16.7714314 0.0873757077,16.8601956 C0.159676681,16.9489597 0.267149394,17.0002286 0.380439935,16.9999992 L15.6195601,16.9999992 C15.7328506,17.0002286 15.8403233,16.9489597 15.9126243,16.8601956 C15.9849253,16.7714314 16.0145002,16.6544464 15.9932715,16.5411924 L13.8518459,4.17755663 C13.817609,3.99510363 13.6606534,3.86325966 13.4781345,3.86363619 L11.5799179,3.86363619 L11.5799179,3.65838052 C11.5799179,1.63732595 9.97107129,0 7.98517018,0 L7.96144248,0 Z M7.96144248,0.772727238 L7.98517018,0.772727238 C9.56423374,0.772727238 10.8206312,2.05136479 10.8206312,3.65838052 L10.8206312,3.86363619 L5.12598143,3.86363619 L5.12598143,3.65838052 C5.12598143,2.05136479 6.38237892,0.772727238 7.96144248,0.772727238 Z M2.84218959,4.63636343 L4.36669479,4.63636343 L4.36669479,6.1818179 C4.3647585,6.3211545 4.43669164,6.45075842 4.55494961,6.52100178 C4.67320757,6.59124514 4.81946865,6.59124514 4.93772662,6.52100178 C5.05598458,6.45075842 5.12791772,6.3211545 5.12598143,6.1818179 L5.12598143,4.63636343 L10.8206312,4.63636343 L10.8206312,6.1818179 C10.8186949,6.3211545 10.8906281,6.45075842 11.008886,6.52100178 C11.127144,6.59124514 11.2734051,6.59124514 11.3916631,6.52100178 C11.509921,6.45075842 11.5818542,6.3211545 11.5799179,6.1818179 L11.5799179,4.63636343 L13.1578104,4.63636343 L15.1687336,16.227272 L0.831266377,16.227272 L2.84218959,4.63636343 Z" id="Shape"/></g></svg>