<svg width="17" height="17" viewBox="0 0 17 17" version="1.1" xmlns="http://www.w3.org/2000/svg" fill-rule="nonzero"><g id="Search-icon" transform="translate(0.000000, 0.120477)"><path d="M10.4318182,0.0684117778 C6.80888772,0.0684117778 3.86363636,2.94821367 3.86363636,6.490634 C3.86363636,8.12538347 4.49219282,9.61781441 5.52379261,10.7524396 L4.25,11.9979257 L3.74893466,11.5079951 C3.66599886,11.4281606 3.55067931,11.3891294 3.4350142,11.4017451 C3.34849132,11.4108917 3.26765976,11.4483295 3.2056108,11.5079951 L0.114701705,14.5302173 C0.0413443641,14.6011838 6.66032595e-05,14.6978927 6.66032595e-05,14.7987937 C6.66032595e-05,14.8996948 0.0413443641,14.9964037 0.114701705,15.0673701 L1.66015625,16.5784812 C1.81069059,16.7239978 2.05294578,16.7239978 2.20348011,16.5784812 L5.2943892,13.556259 C5.36774654,13.4852926 5.40902431,13.3885837 5.40902431,13.2876826 C5.40902431,13.1867815 5.36774654,13.0900727 5.2943892,13.0191062 L4.79332386,12.5350784 L6.07315341,11.2836896 C7.2339308,12.293913 8.75847978,12.9128562 10.4318182,12.9128562 C14.0547486,12.9128562 17,10.03306 17,6.490634 C17,2.94821367 14.0547486,0.0684117778 10.4318182,0.0684117778 Z M10.4318182,0.823967333 C13.6371357,0.823967333 16.2272727,3.35654611 16.2272727,6.490634 C16.2272727,9.62472 13.6371357,12.1573007 10.4318182,12.1573007 C7.22650064,12.1573007 4.63636364,9.62472 4.63636364,6.490634 C4.63636364,3.35654611 7.22650064,0.823967333 10.4318182,0.823967333 Z M3.47727273,12.3107729 L4.47940341,13.290634 L1.93181818,15.7757034 L0.9296875,14.8017451 L3.47727273,12.3107729 Z" id="Shape"/></g></svg>